<svg viewBox="0 0 330 200" xmlns="http://www.w3.org/2000/svg"><g><g><g><g><g><line x1="51.4375" y1="178" x2="46.4375" y2="178" style="visibility: inherit;" fill="rgb(0, 0, 0)" stroke="rgb(204, 204, 204)" stroke-width="1px"></line><line x1="51.4375" y1="164.30769230769232" x2="46.4375" y2="164.30769230769232" style="visibility: inherit;" fill="rgb(0, 0, 0)" stroke="rgb(204, 204, 204)" stroke-width="1px"></line><line x1="51.4375" y1="150.6153846153846" x2="46.4375" y2="150.6153846153846" style="visibility: inherit;" fill="rgb(0, 0, 0)" stroke="rgb(204, 204, 204)" stroke-width="1px"></line><line x1="51.4375" y1="136.92307692307696" x2="46.4375" y2="136.92307692307696" style="visibility: inherit;" fill="rgb(0, 0, 0)" stroke="rgb(204, 204, 204)" stroke-width="1px"></line><line x1="51.4375" y1="123.23076923076923" x2="46.4375" y2="123.23076923076923" style="visibility: inherit;" fill="rgb(0, 0, 0)" stroke="rgb(204, 204, 204)" stroke-width="1px"></line><line x1="51.4375" y1="109.53846153846152" x2="46.4375" y2="109.53846153846152" style="visibility: inherit;" fill="rgb(0, 0, 0)" stroke="rgb(204, 204, 204)" stroke-width="1px"></line><line x1="51.4375" y1="95.84615384615387" x2="46.4375" y2="95.84615384615387" style="visibility: inherit;" fill="rgb(0, 0, 0)" stroke="rgb(204, 204, 204)" stroke-width="1px"></line><line x1="51.4375" y1="82.15384615384613" x2="46.4375" y2="82.15384615384613" style="visibility: inherit;" fill="rgb(0, 0, 0)" stroke="rgb(204, 204, 204)" stroke-width="1px"></line><line x1="51.4375" y1="68.46153846153848" x2="46.4375" y2="68.46153846153848" style="visibility: inherit;" fill="rgb(0, 0, 0)" stroke="rgb(204, 204, 204)" stroke-width="1px"></line><line x1="51.4375" y1="54.769230769230774" x2="46.4375" y2="54.769230769230774" style="visibility: inherit;" fill="rgb(0, 0, 0)" stroke="rgb(204, 204, 204)" stroke-width="1px"></line><line x1="51.4375" y1="41.07692307692305" x2="46.4375" y2="41.07692307692305" style="visibility: inherit;" fill="rgb(0, 0, 0)" stroke="rgb(204, 204, 204)" stroke-width="1px"></line><line x1="51.4375" y1="27.384615384615348" x2="46.4375" y2="27.384615384615348" style="visibility: inherit;" fill="rgb(0, 0, 0)" stroke="rgb(204, 204, 204)" stroke-width="1px"></line><line x1="51.4375" y1="13.692307692307702" x2="46.4375" y2="13.692307692307702" style="visibility: inherit;" fill="rgb(0, 0, 0)" stroke="rgb(204, 204, 204)" stroke-width="1px"></line><line x1="51.4375" y1="0" x2="46.4375" y2="0" style="visibility: inherit;" fill="rgb(0, 0, 0)" stroke="rgb(204, 204, 204)" stroke-width="1px"></line></g><g transform="translate(41.4375, 0)"><text x="0" y="178" dx="0em" dy="0.3em" style="text-anchor: end; visibility: hidden; font-family: Roboto, sans-serif; font-size: 12px; font-weight: 200;" fill="rgb(50, 49, 63)" stroke="none" stroke-width="1px">0.55</text><text x="0" y="164.30769230769232" dx="0em" dy="0.3em" style="text-anchor: end; visibility: inherit; font-family: Roboto, sans-serif; font-size: 12px; font-weight: 200;" fill="rgb(50, 49, 63)" stroke="none" stroke-width="1px">0.6</text><text x="0" y="150.6153846153846" dx="0em" dy="0.3em" style="text-anchor: end; visibility: hidden; font-family: Roboto, sans-serif; font-size: 12px; font-weight: 200;" fill="rgb(50, 49, 63)" stroke="none" stroke-width="1px">0.65</text><text x="0" y="136.92307692307696" dx="0em" dy="0.3em" style="text-anchor: end; visibility: inherit; font-family: Roboto, sans-serif; font-size: 12px; font-weight: 200;" fill="rgb(50, 49, 63)" stroke="none" stroke-width="1px">0.7</text><text x="0" y="123.23076923076923" dx="0em" dy="0.3em" style="text-anchor: end; visibility: hidden; font-family: Roboto, sans-serif; font-size: 12px; font-weight: 200;" fill="rgb(50, 49, 63)" stroke="none" stroke-width="1px">0.75</text><text x="0" y="109.53846153846152" dx="0em" dy="0.3em" style="text-anchor: end; visibility: inherit; font-family: Roboto, sans-serif; font-size: 12px; font-weight: 200;" fill="rgb(50, 49, 63)" stroke="none" stroke-width="1px">0.8</text><text x="0" y="95.84615384615387" dx="0em" dy="0.3em" style="text-anchor: end; visibility: hidden; font-family: Roboto, sans-serif; font-size: 12px; font-weight: 200;" fill="rgb(50, 49, 63)" stroke="none" stroke-width="1px">0.85</text><text x="0" y="82.15384615384613" dx="0em" dy="0.3em" style="text-anchor: end; visibility: inherit; font-family: Roboto, sans-serif; font-size: 12px; font-weight: 200;" fill="rgb(50, 49, 63)" stroke="none" stroke-width="1px">0.9</text><text x="0" y="68.46153846153848" dx="0em" dy="0.3em" style="text-anchor: end; visibility: hidden; font-family: Roboto, sans-serif; font-size: 12px; font-weight: 200;" fill="rgb(50, 49, 63)" stroke="none" stroke-width="1px">0.95</text><text x="0" y="54.769230769230774" dx="0em" dy="0.3em" style="text-anchor: end; visibility: inherit; font-family: Roboto, sans-serif; font-size: 12px; font-weight: 200;" fill="rgb(50, 49, 63)" stroke="none" stroke-width="1px">1</text><text x="0" y="41.07692307692305" dx="0em" dy="0.3em" style="text-anchor: end; visibility: hidden; font-family: Roboto, sans-serif; font-size: 12px; font-weight: 200;" fill="rgb(50, 49, 63)" stroke="none" stroke-width="1px">1.05</text><text x="0" y="27.384615384615348" dx="0em" dy="0.3em" style="text-anchor: end; visibility: inherit; font-family: Roboto, sans-serif; font-size: 12px; font-weight: 200;" fill="rgb(50, 49, 63)" stroke="none" stroke-width="1px">1.1</text><text x="0" y="13.692307692307702" dx="0em" dy="0.3em" style="text-anchor: end; visibility: hidden; font-family: Roboto, sans-serif; font-size: 12px; font-weight: 200;" fill="rgb(50, 49, 63)" stroke="none" stroke-width="1px">1.15</text><text x="0" y="0" dx="0em" dy="0.3em" style="text-anchor: end; visibility: hidden; font-family: Roboto, sans-serif; font-size: 12px; font-weight: 200;" fill="rgb(50, 49, 63)" stroke="none" stroke-width="1px">1.2</text></g><line x1="51.4375" y1="0" x2="51.4375" y2="178" fill="rgb(0, 0, 0)" stroke="rgb(204, 204, 204)" stroke-width="1px"></line></g></g><g transform="translate(51, 0)" clip-path="url(#clip_0)"><clipPath id="clip_0"><rect width="278" height="178"></rect></clipPath><g><g><g><line x1="0" y1="0" x2="0" y2="178" fill="rgb(0, 0, 0)" stroke="rgb(60, 60, 60)" stroke-width="1px" opacity="0.25"></line><line x1="23.213541666666664" y1="0" x2="23.213541666666664" y2="178" fill="rgb(0, 0, 0)" stroke="rgb(60, 60, 60)" stroke-width="1px" opacity="0.25"></line><line x1="46.42708333333333" y1="0" x2="46.42708333333333" y2="178" fill="rgb(0, 0, 0)" stroke="rgb(60, 60, 60)" stroke-width="1px" opacity="0.25"></line><line x1="69.640625" y1="0" x2="69.640625" y2="178" fill="rgb(0, 0, 0)" stroke="rgb(60, 60, 60)" stroke-width="1px" opacity="0.25"></line><line x1="92.85416666666666" y1="0" x2="92.85416666666666" y2="178" fill="rgb(0, 0, 0)" stroke="rgb(60, 60, 60)" stroke-width="1px" opacity="0.25"></line><line x1="116.06770833333334" y1="0" x2="116.06770833333334" y2="178" fill="rgb(0, 0, 0)" stroke="rgb(60, 60, 60)" stroke-width="1px" opacity="0.25"></line><line x1="139.28125" y1="0" x2="139.28125" y2="178" fill="rgb(0, 0, 0)" stroke="rgb(60, 60, 60)" stroke-width="1px" opacity="0.25"></line><line x1="162.49479166666669" y1="0" x2="162.49479166666669" y2="178" fill="rgb(0, 0, 0)" stroke="rgb(60, 60, 60)" stroke-width="1px" opacity="0.25"></line><line x1="185.70833333333331" y1="0" x2="185.70833333333331" y2="178" fill="rgb(0, 0, 0)" stroke="rgb(60, 60, 60)" stroke-width="1px" opacity="0.25"></line><line x1="208.921875" y1="0" x2="208.921875" y2="178" fill="rgb(0, 0, 0)" stroke="rgb(60, 60, 60)" stroke-width="1px" opacity="0.25"></line><line x1="232.13541666666669" y1="0" x2="232.13541666666669" y2="178" fill="rgb(0, 0, 0)" stroke="rgb(60, 60, 60)" stroke-width="1px" opacity="0.25"></line><line x1="255.34895833333331" y1="0" x2="255.34895833333331" y2="178" fill="rgb(0, 0, 0)" stroke="rgb(60, 60, 60)" stroke-width="1px" opacity="0.25"></line><line x1="278.5625" y1="0" x2="278.5625" y2="178" fill="rgb(0, 0, 0)" stroke="rgb(60, 60, 60)" stroke-width="1px" opacity="0.25"></line></g><g><line x1="0" y1="178" x2="278.5625" y2="178" fill="rgb(0, 0, 0)" stroke="rgb(60, 60, 60)" stroke-width="1px" opacity="0.25"></line><line x1="0" y1="164.30769230769232" x2="278.5625" y2="164.30769230769232" fill="rgb(0, 0, 0)" stroke="rgb(60, 60, 60)" stroke-width="1px" opacity="0.25"></line><line x1="0" y1="150.6153846153846" x2="278.5625" y2="150.6153846153846" fill="rgb(0, 0, 0)" stroke="rgb(60, 60, 60)" stroke-width="1px" opacity="0.25"></line><line x1="0" y1="136.92307692307696" x2="278.5625" y2="136.92307692307696" fill="rgb(0, 0, 0)" stroke="rgb(60, 60, 60)" stroke-width="1px" opacity="0.25"></line><line x1="0" y1="123.23076923076923" x2="278.5625" y2="123.23076923076923" fill="rgb(0, 0, 0)" stroke="rgb(60, 60, 60)" stroke-width="1px" opacity="0.25"></line><line x1="0" y1="109.53846153846152" x2="278.5625" y2="109.53846153846152" fill="rgb(0, 0, 0)" stroke="rgb(60, 60, 60)" stroke-width="1px" opacity="0.25"></line><line x1="0" y1="95.84615384615387" x2="278.5625" y2="95.84615384615387" fill="rgb(0, 0, 0)" stroke="rgb(60, 60, 60)" stroke-width="1px" opacity="0.25"></line><line x1="0" y1="82.15384615384613" x2="278.5625" y2="82.15384615384613" fill="rgb(0, 0, 0)" stroke="rgb(60, 60, 60)" stroke-width="1px" opacity="0.25"></line><line x1="0" y1="68.46153846153848" x2="278.5625" y2="68.46153846153848" fill="rgb(0, 0, 0)" stroke="rgb(60, 60, 60)" stroke-width="1px" opacity="0.25"></line><line x1="0" y1="54.769230769230774" x2="278.5625" y2="54.769230769230774" fill="rgb(0, 0, 0)" stroke="rgb(60, 60, 60)" stroke-width="1px" opacity="0.25"></line><line x1="0" y1="41.07692307692305" x2="278.5625" y2="41.07692307692305" fill="rgb(0, 0, 0)" stroke="rgb(60, 60, 60)" stroke-width="1px" opacity="0.25"></line><line x1="0" y1="27.384615384615348" x2="278.5625" y2="27.384615384615348" fill="rgb(0, 0, 0)" stroke="rgb(60, 60, 60)" stroke-width="1px" opacity="0.25"></line><line x1="0" y1="13.692307692307702" x2="278.5625" y2="13.692307692307702" fill="rgb(0, 0, 0)" stroke="rgb(60, 60, 60)" stroke-width="1px" opacity="0.25"></line><line x1="0" y1="0" x2="278.5625" y2="0" fill="rgb(0, 0, 0)" stroke="rgb(60, 60, 60)" stroke-width="1px" opacity="0.25"></line></g></g></g><g><g><line x1="0" y1="328.61538461538464" x2="278.5625" y2="328.61538461538464" fill="rgb(0, 0, 0)" stroke="rgb(153, 153, 153)" stroke-width="1.5px"></line></g></g><g><g><line x1="23.213541666666664" y1="0" x2="23.213541666666664" y2="178" fill="rgb(0, 0, 0)" stroke="rgb(153, 153, 153)" stroke-width="1.5px"></line></g></g><g><g><g><g><g><path stroke="rgb(0, 119, 187)" stroke-width="2px" d="M30.17760416666667,-6.663783740935703L31.33828125,3.2899999578700916L32.498958333333334,10.869201879669344L33.65963541666667,22.112868102457806L34.8203125,21.36609952939281L35.98098958333334,21.190430848525942L37.141666666666666,37.53988261072775L38.302343750000006,46.80322818190067L39.46302083333333,53.445176944382254L40.62369791666667,57.319941481876945L41.784375,59.42227930827494L42.94505208333334,61.92207277308506L44.10572916666666,63.56089520450253L45.26640625,64.71153445723428L46.42708333333333,65.16164468964536L47.58776041666667,65.78099760734696L48.748437499999994,66.42614533050079L49.909114583333334,66.26657443915977L51.06979166666666,66.55539817475459L52.23046875,66.83004827638958L53.39114583333334,66.83737142809247L54.551822916666666,66.65762125451448L55.712500000000006,66.32925412797309L56.87317708333333,66.89606193577416L58.03385416666667,66.94048068671393L59.19453125,66.93938367666931L60.35520833333334,67.13624735008335L61.51588541666666,66.51086899877467L62.6765625,66.35877714451871L63.83723958333333,66.57894885980639L64.99791666666667,66.99681973796919L66.15859375,66.90720502216911L67.31927083333333,67.38422439563679L68.47994791666666,67.10877869958429L69.640625,67.31523343050155L70.80130208333333,67.70267551404434L71.96197916666668,67.91865503629562L73.12265625,67.31577370428073L74.28333333333333,67.59242451570678L75.44401041666666,67.70468785257728L76.60468750000001,67.30772941321514L77.76536458333334,67.41664257652037L78.92604166666666,67.70183499918191L80.08671874999999,67.62373195219686L81.24739583333334,67.11192036943577L82.40807291666667,66.95723989220733L83.56875,67.00733838171215L84.72942708333332,67.16757922813353L85.89010416666667,67.01101221982586L87.05078125,67.25832984377398L88.21145833333333,67.67762173133775L89.37213541666668,68.212914606209L90.5328125,67.96572772831085L91.69348958333333,67.83440406240628L92.85416666666666,67.86585204625538L94.01484375000001,68.29647881925901L95.17552083333334,68.04917721969827L96.33619791666666,68.29986186453847L97.49687499999999,67.95887391346186L98.65755208333334,67.92557601539322L99.81822916666667,68.14594286464931L100.97890625,67.33817615838355L102.13958333333332,67.21554271602152L103.30026041666667,67.9786933141973L104.4609375,67.79055207332436L105.62161458333333,67.69563513979821L106.78229166666668,67.58553891081607L107.94296875,67.94409475926574L109.10364583333333,68.0825712665467L110.26432291666666,68.11076785875802L111.42500000000001,68.04016455448351L112.58567708333334,68.14501848847904L113.74635416666666,68.324669388352L114.90703124999999,68.3255801804449L116.06770833333334,67.88917325780308L117.22838541666667,68.00112747457928L118.3890625,67.97431503396535L119.54973958333332,68.1910582774405L120.71041666666667,68.66509770391454L121.87109375,68.72330453005888L123.03177083333333,68.12443890300939L124.19244791666668,68.22343581624129L125.353125,68.19116025988637L126.51380208333333,68.00886370389138L127.67447916666666,67.75843323076236L128.83515625,67.70637112326717L129.99583333333334,67.64835842530309L131.15651041666666,68.29987287202472L132.3171875,68.05607122816805L133.47786458333334,68.28937983618154L134.63854166666667,68.14588230269581L135.79921875,67.78164180720152L136.95989583333332,67.5942734901061L138.12057291666667,68.00980058592722L139.28125,68.64049538404582L140.44192708333333,68.50593517633627L141.60260416666665,68.30437988655409L142.76328124999998,68.37508595265624L143.92395833333336,68.1557358226454L145.08463541666669,68.46171898464324L146.2453125,67.78545902539193L147.40598958333334,68.00480920112852L148.56666666666666,68.1908711756548L149.72734375,67.66151062043194L150.88802083333331,67.4676515029448L152.04869791666664,67.73431417834533L153.20937500000002,67.13665385218448L154.37005208333335,67.68230472034485L155.53072916666667,67.17850117057174L156.69140625,67.13572724700198L157.85208333333333,67.19563851013685L159.01276041666665,67.76851073059386L160.17343749999998,67.64840729648715L161.33411458333336,67.36291871941685L162.49479166666669,67.18656559733049L163.65546875,67.83674676020213L164.81614583333334,67.71983934933887L165.97682291666666,67.76729527044034L167.1375,67.68064294689462L168.29817708333331,67.49489190745186L169.45885416666664,67.68569486021163L170.61953125000002,67.89576120781399L171.78020833333335,67.41250810572619L172.94088541666667,66.79898547949173L174.1015625,66.95362943396344L175.26223958333333,67.3352326988302L176.42291666666665,66.91717717880739L177.58359374999998,66.8688147195722L178.74427083333336,66.81106311023736L179.90494791666669,67.18494480079254L181.065625,66.74451704022327L182.22630208333334,66.51703171801637L183.38697916666666,66.12106496340353L184.54765625,66.88607178889883L185.70833333333331,67.23423303270395L186.86901041666664,67.26851817385634L188.02968750000002,66.9427453377667L189.19036458333335,66.52310185471269L190.35104166666667,66.54881789817637L191.51171875,66.35394839917005L192.67239583333333,66.81611645137667L193.83307291666665,66.20145779889373L194.99374999999998,66.7139145294245L196.15442708333336,66.2413492206079L197.31510416666669,65.68137212919936L198.47578125,66.20970156754929L199.63645833333334,66.1994134639577L200.79713541666666,65.92520552008602L201.9578125,65.64037085069157L203.11848958333331,65.62467093394729L204.27916666666664,65.93496310923875L205.43984375000002,65.68295756431127L206.60052083333335,65.42181891701412L207.76119791666667,65.46260536657996L208.921875,65.22391931841643L210.08255208333333,65.41129060166999L211.24322916666665,65.37047118705648L212.40390624999998,66.50863140725532L213.56458333333336,66.40693747848029L214.72526041666669,65.71915007465016L215.8859375,65.44563023256708L217.04661458333334,65.80227145419526L218.20729166666666,65.32076740414277L219.36796875,65.31058803061103L220.52864583333331,64.43722013380571L221.68932291666664,64.54479537409257L222.85000000000002,64.90173530304534L224.01067708333335,65.0018506693901L225.17135416666667,64.60887903261549L226.33203125,64.55851968148522L227.49270833333333,64.04607857935667L228.65338541666665,64.43211135577678L229.81406249999998,64.40395512629004L230.97473958333336,63.96821291072088L232.13541666666669,64.47592308369869L233.29609375,64.80545732664085L234.45677083333334,64.74609845451721L235.61744791666666,64.57608364382097L236.778125,64.24911149587228L237.93880208333331,64.30104983549758L239.09947916666664,64.70463359040421L240.26015625000002,63.8674159122757L241.42083333333335,63.22218505855835L242.58151041666667,63.436171676614514L243.7421875,63.81524464426966L244.90286458333333,63.11390537491256L246.06354166666665,63.0141523838596L247.22421874999998,62.349316819297485L248.38489583333336,63.70308664896091L249.54557291666669,62.8115926545189L250.70625,62.60530741167637L251.86692708333334,63.009667164079715L253.02760416666666,63.423218793039155L254.18828125,62.94036280846321" style="fill: none;" fill="none"></path></g><g><path stroke="rgb(255, 112, 67)" stroke-width="2px" d="M29.016927083333336,-7.241550465945242L30.17760416666667,5.385129524524919L31.33828125,15.709561068510007L32.498958333333334,25.347974783371985L33.65963541666667,32.88574227386469L34.8203125,40.13226167929614L35.98098958333334,47.51627093061787L37.141666666666666,59.00503188638433L38.302343750000006,68.58623090590369L39.46302083333333,75.29063830995074L40.62369791666667,81.31901580109522L41.784375,85.45491340526868L42.94505208333334,89.74653611951028L44.10572916666666,92.48457022706204L45.26640625,94.13253994507868L46.42708333333333,95.50703158901364L47.58776041666667,96.55093443281986L48.748437499999994,97.81076826605208L49.909114583333334,98.79110420335223L51.06979166666666,99.01682467978397L52.23046875,99.33793513364596L53.39114583333334,99.56581199431147L54.551822916666666,100.10100314261528L55.712500000000006,100.56461965153616L56.87317708333333,101.30471637674613L58.03385416666667,101.7683874290314L59.19453125,101.81100405598787L60.35520833333334,102.9579822526266L61.51588541666666,103.55683934009438L62.6765625,103.85918804611099L63.83723958333333,104.36757617331747L64.99791666666667,104.98665400062147L66.15859375,105.33883361226592L67.31927083333333,105.50183329924883L68.47994791666666,105.70547474800529L69.640625,106.12217632745585L70.80130208333333,106.22195843077539L71.96197916666668,106.7488797857902L73.12265625,107.60276765750604L74.28333333333333,107.9910754757367L75.44401041666666,107.71620834589196L76.60468750000001,108.11373539585102L77.76536458333334,108.45392123078089L78.92604166666666,108.72831742846063L80.08671874999999,109.3784777840704L81.24739583333334,109.92899808319753L82.40807291666667,110.61188285049332L83.56875,110.80373441552L84.72942708333332,110.85985582969447L85.89010416666667,111.36590190700609L87.05078125,111.66724440301162L88.21145833333333,112.15286937446841L89.37213541666668,112.13607550593011L90.5328125,112.39863068329066L91.69348958333333,113.2001452831434L92.85416666666666,113.2936231184193L94.01484375000001,113.89525356359877L95.17552083333334,114.18133765921174L96.33619791666666,115.05941950543445L97.49687499999999,115.68122640501005L98.65755208333334,115.39489449274403L99.81822916666667,115.77369906524247L100.97890625,116.06397361125056L102.13958333333332,116.7343815956444L103.30026041666667,116.48926287028009L104.4609375,117.33418194455665L105.62161458333333,118.02091596311601L106.78229166666668,117.87193889765625L107.94296875,117.37243998396073L109.10364583333333,117.62689613219398L110.26432291666666,118.68428697306919L111.42500000000001,119.33425397118567L112.58567708333334,119.69822915871708L113.74635416666666,120.5859021728942L114.90703124999999,120.6570361844128L116.06770833333334,120.80128173226822L117.22838541666667,121.20678382219312L118.3890625,121.32538115534356L119.54973958333332,121.28646059686918L120.71041666666667,121.9069200011926L121.87109375,122.67783033429147L123.03177083333333,122.7005764917783L124.19244791666668,123.37698308683943L125.353125,123.41792117299835L126.51380208333333,123.23078769337609L127.67447916666666,123.65229261865484L128.83515625,124.46739479961467L129.99583333333334,124.53702654921648L131.15651041666666,124.59466454262333L132.3171875,124.907369727067L133.47786458333334,124.77887819199535L134.63854166666667,125.77422393186922L135.79921875,125.89784375278418L136.95989583333332,126.96135518038615L138.12057291666667,126.76932566445446L139.28125,127.11593684694301L140.44192708333333,127.617264633378L141.60260416666665,127.82090976903108L142.76328124999998,127.85829165527473L143.92395833333336,127.84989084387755L145.08463541666669,128.52993844133348L146.2453125,128.71769809005926L147.40598958333334,128.79916484109143L148.56666666666666,129.08942206198L149.72734375,129.97414717005873L150.88802083333331,130.44358350866273L152.04869791666664,130.11002406818687L153.20937500000002,130.20334088685843L154.37005208333335,130.56979803785705L155.53072916666667,130.69297782232454L156.69140625,130.88049031195789L157.85208333333333,131.88552531263954L159.01276041666665,131.70915333702126L160.17343749999998,132.0195735580928L161.33411458333336,132.80322929040142L162.49479166666669,133.01428667655455L163.65546875,132.87199808238165L164.81614583333334,133.37142755344132L165.97682291666666,134.40546074959408L167.1375,134.73906817843638L168.29817708333331,135.38118071947264L169.45885416666664,135.11915654710575L170.61953125000002,135.18740150929935L171.78020833333335,135.1308966163575L172.94088541666667,135.36914856199638L174.1015625,135.1921656180046L175.26223958333333,135.76465245683417L176.42291666666665,135.97917067261497L177.58359374999998,137.43139499988717L178.74427083333336,137.63907622253222L179.90494791666669,138.09240057395934L181.065625,138.1900382107274L182.22630208333334,138.9900215114772L183.38697916666666,139.1275653847963L184.54765625,138.41837850770506L185.70833333333331,138.4291472922357L186.86901041666664,139.178393429874L188.02968750000002,139.9533530557459L189.19036458333335,140.60296245307177L190.35104166666667,140.41707912343094L191.51171875,140.56079389422925L192.67239583333333,140.33897142731564L193.83307291666665,140.40836838694923L194.99374999999998,141.01004468916136L196.15442708333336,141.36821035501484L197.31510416666669,141.8182909027625L198.47578125,141.9080996273415L199.63645833333334,142.10829977649882L200.79713541666666,142.86335216391987L201.9578125,143.12641578067988L203.11848958333331,143.4864244694643L204.27916666666664,143.57329257019086L205.43984375000002,144.9794629665248L206.60052083333335,144.76442891669467L207.76119791666667,144.7756514301935L208.921875,144.75755514715044L210.08255208333333,144.46552594541635L211.24322916666665,144.66582392202366L212.40390624999998,145.53768660339261L213.56458333333336,145.68283381015664L214.72526041666669,145.7326872410031L215.8859375,146.55619285290734L217.04661458333334,146.5593349251421L218.20729166666666,147.45545827367002L219.36796875,147.32319148101956L220.52864583333331,148.06022423062927L221.68932291666664,147.78972506349118L222.85000000000002,148.50261204321697L224.01067708333335,148.77514334616004L225.17135416666667,148.90401271914527L226.33203125,148.67358987659497L227.49270833333333,148.6589758646918L228.65338541666665,149.20416055496665L229.81406249999998,149.75348592120397L230.97473958333336,149.44872339511554L232.13541666666669,149.3627236106214L233.29609375,149.97746706209193L234.45677083333334,150.55385049059802L235.61744791666666,150.36426328437722L236.778125,150.93745328124834L237.93880208333331,150.9430083269221L239.09947916666664,151.7662010791047L240.26015625000002,151.75573833826812L241.42083333333335,152.38900899546294L242.58151041666667,152.57131241080413L243.7421875,153.13633385902378L244.90286458333333,152.87846544837703L246.06354166666665,153.07248446616975L247.22421874999998,154.03676501629664L248.38489583333336,154.24493005657789L249.54557291666669,153.94391622369093L250.70625,154.5871895134082L251.86692708333334,154.7788830598281L253.02760416666666,154.99730550693144L254.18828125,155.55291380002254" style="fill: none;" fill="none"></path></g></g></g></g><g opacity="0.2"><g><g><g><path stroke="rgb(0, 119, 187)" stroke-width="2px" d="M27.856250000000003,-0.6430217302762484L29.016927083333336,9.029562803415137L30.17760416666667,-11.351628156808712L31.33828125,17.802712147052464L32.498958333333334,22.047052530141972L33.65963541666667,38.8084020614624L34.8203125,20.25271980579081L35.98098958333334,20.927883808429417L37.141666666666666,62.010676457331726L38.302343750000006,60.68009868034949L39.46302083333333,63.40029272666345L40.62369791666667,63.129355503962586L41.784375,62.574896408961365L42.94505208333334,65.67112827301025L44.10572916666666,66.01887919352603L45.26640625,66.4373881633465L46.42708333333333,65.83678535314706L47.58776041666667,66.71000660382785L48.748437499999994,67.39385417791513L49.909114583333334,66.02721999241754L51.06979166666666,66.98863172531128L52.23046875,67.24202225758478L53.39114583333334,66.8483561369089L54.551822916666666,66.38799627010638L55.712500000000006,65.83670374063345L56.87317708333333,67.74627333420972L58.03385416666667,67.00710879839383L59.19453125,66.93773816182062L60.35520833333334,67.43154283670279L61.51588541666666,65.57280151660626L62.6765625,66.13063936967114L63.83723958333333,66.90920642706064L64.99791666666667,67.62362604874829L66.15859375,66.7727829493009L67.31927083333333,68.09975345318134L68.47994791666666,66.69561015642606L69.640625,67.62491552646344L70.80130208333333,68.28383863889255L71.96197916666668,68.2426243195167L73.12265625,66.4114517065195L74.28333333333333,68.00740073277399L75.44401041666666,67.87308285786554L76.60468750000001,66.71229175420908L77.76536458333334,67.58001232147217L78.92604166666666,68.12962363316461L80.08671874999999,67.50657738172092L81.24739583333334,66.3442029953003L82.40807291666667,66.72521917636578L83.56875,67.08248611596915L84.72942708333332,67.40794049776517L85.89010416666667,66.7761617073646L87.05078125,67.62930627969595L88.21145833333333,68.3065595626831L89.37213541666668,69.01585391851572L90.5328125,67.5949474114638L91.69348958333333,67.63741856354932L92.85416666666666,67.91302402202899L94.01484375000001,68.94241897876447L95.17552083333334,67.67822482035709L96.33619791666666,68.67588883179883L97.49687499999999,67.44739198684692L98.65755208333334,67.87562916829035L99.81822916666667,68.47649313853336L100.97890625,66.12652609898493L102.13958333333332,67.03159255247849L103.30026041666667,69.123419211461L104.4609375,67.50834021201501L105.62161458333333,67.553259739509L106.78229166666668,67.4203945673429L107.94296875,68.48192853194016L109.10364583333333,68.29028602746817L110.26432291666666,68.15306274707501L111.42500000000001,67.93425959807175L112.58567708333334,68.30229938947238L113.74635416666666,68.59414573816153L114.90703124999999,68.32694636858426L116.06770833333334,67.23456287384033L117.22838541666667,68.16905879974365L118.3890625,67.93409637304453L119.54973958333332,68.51617314265323L120.71041666666667,69.37615684362558L121.87109375,68.81061476927536L123.03177083333333,67.22614046243521L124.19244791666668,68.37193118608914L125.353125,68.142746925354L126.51380208333333,67.73541886989887L127.67447916666666,67.38278752106885L128.83515625,67.62827796202438L129.99583333333334,67.56133937835693L131.15651041666666,69.27714454210721L132.3171875,67.69036876238309L133.47786458333334,68.63934274820181L134.63854166666667,67.93063600246722L135.79921875,67.23528106396014L136.95989583333332,67.31322101446298L138.12057291666667,68.63309122965885L139.28125,69.5865375812237L140.44192708333333,68.30409486477191L141.60260416666665,68.00204695188083L142.76328124999998,68.48114505180945L143.92395833333336,67.82671062762921L145.08463541666669,68.92069372764001L146.2453125,66.77106908651498L147.40598958333334,68.3338344647334L148.56666666666666,68.46996413744412L149.72734375,66.86746978759766L150.88802083333331,67.17686282671414L152.04869791666664,68.13430819144617L153.20937500000002,66.2401633629432L154.37005208333335,68.50078102258536L155.53072916666667,66.42279584591205L156.69140625,67.07156636164737L157.85208333333333,67.28550540483914L159.01276041666665,68.6278190612793L160.17343749999998,67.46825214532706L161.33411458333336,66.9346858538114L162.49479166666669,66.92203591420099L163.65546875,68.81201850450955L164.81614583333334,67.54447823304395L165.97682291666666,67.83847915209256L167.1375,67.55066446157602L168.29817708333331,67.21626534828772L169.45885416666664,67.97189928935123L170.61953125000002,68.21086072921753L171.78020833333335,66.68762845259445L172.94088541666667,65.87870154014001L174.1015625,67.18559536567102L175.26223958333333,67.90763759613037L176.42291666666665,66.2900938987732L177.58359374999998,66.79627103071945L178.74427083333336,66.72443569623508L179.90494791666669,67.7457673366253L181.065625,66.08387539936945L182.22630208333334,66.175803734706L183.38697916666666,65.52711483148428L184.54765625,68.03358202714185L185.70833333333331,67.75647489841168L186.86901041666664,67.3199458855849L188.02968750000002,66.45408608363223L189.19036458333335,65.89363663013165L190.35104166666667,66.58739196337186L191.51171875,66.06164415066058L192.67239583333333,67.50936852968655L193.83307291666665,65.27946982016931L194.99374999999998,67.48259962522067L196.15442708333336,65.5325012573829L197.31510416666669,64.84140649208655L198.47578125,67.00219572507419L199.63645833333334,66.18398130857028L200.79713541666666,65.51389360427856L201.9578125,65.21311884659985L203.11848958333331,65.60112105883084L204.27916666666664,66.40040137217593L205.43984375000002,65.30494924692007L206.60052083333335,65.03011094606839L207.76119791666667,65.52378504092877L208.921875,64.8658902461712L210.08255208333333,65.6923475265503L211.24322916666665,65.30924206513623L212.40390624999998,68.21587173755353L213.56458333333336,66.25439658531775L214.72526041666669,64.68746896890494L215.8859375,65.0353504694425L217.04661458333334,66.33723328663751L218.20729166666666,64.598511329064L219.36796875,65.29531897031345L220.52864583333331,63.12716828859769L221.68932291666664,64.70615823452289L222.85000000000002,65.43714519647452L224.01067708333335,65.15202371890729L225.17135416666667,64.01942157745361L226.33203125,64.48298065478986L227.49270833333333,63.27741692616389L228.65338541666665,65.01116052040686L229.81406249999998,64.36172078205988L230.97473958333336,63.31459958736713L232.13541666666669,65.23748834316547L233.29609375,65.29975869105411L234.45677083333334,64.65706014633179L235.61744791666666,64.32106142777661L236.778125,63.75865327394925L237.93880208333331,64.37895734493549L239.09947916666664,65.31000922276422L240.26015625000002,62.611589395082916L241.42083333333335,62.25433877798227L242.58151041666667,63.75715160369873L243.7421875,64.38385409575241L244.90286458333333,62.06189647087683L246.06354166666665,62.86452289728018L247.22421874999998,61.352063472454354L248.38489583333336,65.73374139345609L249.54557291666669,61.474351662855874L250.70625,62.29587954741257L251.86692708333334,63.61620679268469L253.02760416666666,64.04354623647836L254.18828125,62.216078831599305" style="fill: none;" fill="none"></path></g><g><path stroke="rgb(255, 112, 67)" stroke-width="2px" d="M26.69557291666667,-10.495871984041676L27.856250000000003,3.506778717040996L29.016927083333336,13.353426419771615L30.17760416666667,23.441483937776987L31.33828125,30.762681374183053L32.498958333333334,39.56276284731351L33.65963541666667,44.078448515671944L34.8203125,50.936315389779885L35.98098958333334,58.55210135533259L37.141666666666666,76.20066052216751L38.302343750000006,82.93925886887772L39.46302083333333,85.33936863679153L40.62369791666667,90.3573303589454L41.784375,91.6570096382728L42.94505208333334,96.18288054833044L44.10572916666666,96.59120427645172L45.26640625,96.6043438911438L46.42708333333333,97.56869367452768L47.58776041666667,98.11675434846143L48.748437499999994,99.70049414267908L49.909114583333334,100.26159649628858L51.06979166666666,99.35540379010715L52.23046875,99.81959944504956L53.39114583333334,99.90762670223529L54.551822916666666,100.90378904342651L55.712500000000006,101.26004398786105L56.87317708333333,102.41486105552087L58.03385416666667,102.46389385370108L59.19453125,101.8749289879432L60.35520833333334,104.67844941065863L61.51588541666666,104.45512492840106L62.6765625,104.31271109214197L63.83723958333333,105.13015835101788L64.99791666666667,105.91527073199933L66.15859375,105.86710302646344L67.31927083333333,105.74633282881518L68.47994791666666,106.01093692045947L69.640625,106.74722869579608L70.80130208333333,106.37163158563467L71.96197916666668,107.53926181793213L73.12265625,108.88359946470996L74.28333333333333,108.57353720298181L75.44401041666666,107.30390765116766L76.60468750000001,108.71002597075244L77.76536458333334,108.96419998315665L78.92604166666666,109.13991172497089L80.08671874999999,110.35371831747202L81.24739583333334,110.75477853188147L82.40807291666667,111.63621000143198L83.56875,111.09151176305917L84.72942708333332,110.9440379509559L85.89010416666667,112.12497102297272L87.05078125,112.1192581470196L88.21145833333333,112.88130683165332L89.37213541666668,112.11088470312265L90.5328125,112.79246344933142L91.69348958333333,114.40241718292236L92.85416666666666,113.43383987133319L94.01484375000001,114.79769923136786L95.17552083333334,114.6104638026311L96.33619791666666,116.37654227476855L97.49687499999999,116.61393675437341L98.65755208333334,114.96539662434503L99.81822916666667,116.34190592399011L100.97890625,116.49938543026263L102.13958333333332,117.73999357223511L103.30026041666667,116.12158478223361L104.4609375,118.60156055597159L105.62161458333333,119.05101699095508L106.78229166666668,117.64847329946666L107.94296875,116.62319161341742L109.10364583333333,118.00858035454382L110.26432291666666,120.27037323438205L111.42500000000001,120.30920446836032L112.58567708333334,120.24419194001419L113.74635416666666,121.91741169415988L114.90703124999999,120.76373720169067L116.06770833333334,121.01765005405133L117.22838541666667,121.81503695708057L118.3890625,121.50327715506921L119.54973958333332,121.22807975915762L120.71041666666667,122.83760910767776L121.87109375,123.83419583393976L123.03177083333333,122.73469572800857L124.19244791666668,124.39159297943115L125.353125,123.4793283022367L126.51380208333333,122.95008747394269L127.67447916666666,124.28455000657303L128.83515625,125.69004807105432L129.99583333333334,124.6414741736192L131.15651041666666,124.68112153273364L132.3171875,125.37642750373254L133.47786458333334,124.58614088938788L134.63854166666667,127.26724254167999L135.79921875,126.08327348415668L136.95989583333332,128.5566223217891L138.12057291666667,126.48128139055694L139.28125,127.6358536206759L140.44192708333333,128.36925631303055L141.60260416666665,128.1263774725107L142.76328124999998,127.91436448464026L143.92395833333336,127.83728962678177L145.08463541666669,129.5500098375174L146.2453125,128.99933756314792L147.40598958333334,128.92136496763965L148.56666666666666,129.5248078933129L149.72734375,131.30123483217682L150.88802083333331,131.14773801656872L152.04869791666664,129.60968490747305L153.20937500000002,130.34331611486584L154.37005208333335,131.119483764355L155.53072916666667,130.8777474990258L156.69140625,131.16175904640784L157.85208333333333,133.39307781366202L159.01276041666665,131.44459537359387L160.17343749999998,132.48520388970007L161.33411458333336,133.97871288886438L162.49479166666669,133.33087275578427L163.65546875,132.6585651911222L164.81614583333334,134.12057176003088L165.97682291666666,135.95651054382324L167.1375,135.2394793216999L168.29817708333331,136.344349531027L169.45885416666664,134.72612028855545L170.61953125000002,135.28976895258978L171.78020833333335,135.0461392769447L172.94088541666667,135.72652648045468L174.1015625,134.926691202017L175.26223958333333,136.62338271507852L176.42291666666665,136.30094799628625L177.58359374999998,139.60973149079544L178.74427083333336,137.95059805649979L179.90494791666669,138.77238710110004L181.065625,138.33649466587948L182.22630208333334,140.1899964626019L183.38697916666666,139.33388119477493L184.54765625,137.35459819206827L185.70833333333331,138.4453004690317L186.86901041666664,140.30226263633142L188.02968750000002,141.1157924945538L189.19036458333335,141.57737654906055L190.35104166666667,140.13825412896963L191.51171875,140.7763660504268L192.67239583333333,140.00623772694516L193.83307291666665,140.5124638263996L194.99374999999998,141.91255914247955L196.15442708333336,141.90545885379498L197.31510416666669,142.49341172438403L198.47578125,142.04281271420993L199.63645833333334,142.40860000023477L200.79713541666666,143.99593074505145L201.9578125,143.52101120581995L203.11848958333331,144.02643750264096L204.27916666666664,143.70359472128064L205.43984375000002,147.0887185610258L206.60052083333335,144.44187784194946L207.76119791666667,144.7924852004418L208.921875,144.73041072258584L210.08255208333333,144.02748214281524L211.24322916666665,144.96627088693472L212.40390624999998,146.84548062544604L213.56458333333336,145.90055462030264L214.72526041666669,145.80746738727277L215.8859375,147.7914512707637L217.04661458333334,146.56404803349423L218.20729166666666,148.79964329646185L219.36796875,147.12479129204385L220.52864583333331,149.16577335504385L221.68932291666664,147.38397631278406L222.85000000000002,149.57194251280566L224.01067708333335,149.18394030057468L225.17135416666667,149.09731677862317L226.33203125,148.3279556127695L227.49270833333333,148.63705484683697L228.65338541666665,150.021937590379L229.81406249999998,150.57747397055994L230.97473958333336,148.99157960598285L232.13541666666669,149.23372393388016L233.29609375,150.89958223929773L234.45677083333334,151.41842563335712L235.61744791666666,150.07988247504602L236.778125,151.797238276555L237.93880208333331,150.9513408954327L239.09947916666664,153.0009902073787L240.26015625000002,151.74004422701324L241.42083333333335,153.3389149812552L242.58151041666667,152.84476753381583L243.7421875,153.9838660313533L244.90286458333333,152.49166283240686L246.06354166666665,153.3635129928589L247.22421874999998,155.483185841487L248.38489583333336,154.5571776169997L249.54557291666669,153.49239547436053L250.70625,155.55209944798398L251.86692708333334,155.06642337945794L253.02760416666666,155.3249391775865L254.18828125,156.38632623965924" style="fill: none;" fill="none"></path></g></g></g></g></g></g><g transform="translate(51, 178)" clip-path="url(#clip_1)"><clipPath id="clip_1"><rect width="278" height="22"></rect></clipPath><g><g><line x1="0" y1="0" x2="0" y2="5" style="visibility: inherit;" fill="rgb(0, 0, 0)" stroke="rgb(204, 204, 204)" stroke-width="1px"></line><line x1="23.213541666666664" y1="0" x2="23.213541666666664" y2="5" style="visibility: inherit;" fill="rgb(0, 0, 0)" stroke="rgb(204, 204, 204)" stroke-width="1px"></line><line x1="46.42708333333333" y1="0" x2="46.42708333333333" y2="5" style="visibility: inherit;" fill="rgb(0, 0, 0)" stroke="rgb(204, 204, 204)" stroke-width="1px"></line><line x1="69.640625" y1="0" x2="69.640625" y2="5" style="visibility: inherit;" fill="rgb(0, 0, 0)" stroke="rgb(204, 204, 204)" stroke-width="1px"></line><line x1="92.85416666666666" y1="0" x2="92.85416666666666" y2="5" style="visibility: inherit;" fill="rgb(0, 0, 0)" stroke="rgb(204, 204, 204)" stroke-width="1px"></line><line x1="116.06770833333334" y1="0" x2="116.06770833333334" y2="5" style="visibility: inherit;" fill="rgb(0, 0, 0)" stroke="rgb(204, 204, 204)" stroke-width="1px"></line><line x1="139.28125" y1="0" x2="139.28125" y2="5" style="visibility: inherit;" fill="rgb(0, 0, 0)" stroke="rgb(204, 204, 204)" stroke-width="1px"></line><line x1="162.49479166666669" y1="0" x2="162.49479166666669" y2="5" style="visibility: inherit;" fill="rgb(0, 0, 0)" stroke="rgb(204, 204, 204)" stroke-width="1px"></line><line x1="185.70833333333331" y1="0" x2="185.70833333333331" y2="5" style="visibility: inherit;" fill="rgb(0, 0, 0)" stroke="rgb(204, 204, 204)" stroke-width="1px"></line><line x1="208.921875" y1="0" x2="208.921875" y2="5" style="visibility: inherit;" fill="rgb(0, 0, 0)" stroke="rgb(204, 204, 204)" stroke-width="1px"></line><line x1="232.13541666666669" y1="0" x2="232.13541666666669" y2="5" style="visibility: inherit;" fill="rgb(0, 0, 0)" stroke="rgb(204, 204, 204)" stroke-width="1px"></line><line x1="255.34895833333331" y1="0" x2="255.34895833333331" y2="5" style="visibility: inherit;" fill="rgb(0, 0, 0)" stroke="rgb(204, 204, 204)" stroke-width="1px"></line><line x1="278.5625" y1="0" x2="278.5625" y2="5" style="visibility: inherit;" fill="rgb(0, 0, 0)" stroke="rgb(204, 204, 204)" stroke-width="1px"></line></g><g transform="translate(0, 8)"><text x="0" y="0" dx="0em" dy="0.95em" style="text-anchor: middle; visibility: hidden; font-family: Roboto, sans-serif; font-size: 12px; font-weight: 200;" fill="rgb(50, 49, 63)" stroke="none" stroke-width="1px">-20</text><text x="23.213541666666664" y="0" dx="0em" dy="0.95em" style="text-anchor: middle; visibility: inherit; font-family: Roboto, sans-serif; font-size: 12px; font-weight: 200;" fill="rgb(50, 49, 63)" stroke="none" stroke-width="1px">0</text><text x="46.42708333333333" y="0" dx="0em" dy="0.95em" style="text-anchor: middle; visibility: hidden; font-family: Roboto, sans-serif; font-size: 12px; font-weight: 200;" fill="rgb(50, 49, 63)" stroke="none" stroke-width="1px">20</text><text x="69.640625" y="0" dx="0em" dy="0.95em" style="text-anchor: middle; visibility: inherit; font-family: Roboto, sans-serif; font-size: 12px; font-weight: 200;" fill="rgb(50, 49, 63)" stroke="none" stroke-width="1px">40</text><text x="92.85416666666666" y="0" dx="0em" dy="0.95em" style="text-anchor: middle; visibility: hidden; font-family: Roboto, sans-serif; font-size: 12px; font-weight: 200;" fill="rgb(50, 49, 63)" stroke="none" stroke-width="1px">60</text><text x="116.06770833333334" y="0" dx="0em" dy="0.95em" style="text-anchor: middle; visibility: inherit; font-family: Roboto, sans-serif; font-size: 12px; font-weight: 200;" fill="rgb(50, 49, 63)" stroke="none" stroke-width="1px">80</text><text x="139.28125" y="0" dx="0em" dy="0.95em" style="text-anchor: middle; visibility: hidden; font-family: Roboto, sans-serif; font-size: 12px; font-weight: 200;" fill="rgb(50, 49, 63)" stroke="none" stroke-width="1px">100</text><text x="162.49479166666669" y="0" dx="0em" dy="0.95em" style="text-anchor: middle; visibility: inherit; font-family: Roboto, sans-serif; font-size: 12px; font-weight: 200;" fill="rgb(50, 49, 63)" stroke="none" stroke-width="1px">120</text><text x="185.70833333333331" y="0" dx="0em" dy="0.95em" style="text-anchor: middle; visibility: hidden; font-family: Roboto, sans-serif; font-size: 12px; font-weight: 200;" fill="rgb(50, 49, 63)" stroke="none" stroke-width="1px">140</text><text x="208.921875" y="0" dx="0em" dy="0.95em" style="text-anchor: middle; visibility: inherit; font-family: Roboto, sans-serif; font-size: 12px; font-weight: 200;" fill="rgb(50, 49, 63)" stroke="none" stroke-width="1px">160</text><text x="232.13541666666669" y="0" dx="0em" dy="0.95em" style="text-anchor: middle; visibility: hidden; font-family: Roboto, sans-serif; font-size: 12px; font-weight: 200;" fill="rgb(50, 49, 63)" stroke="none" stroke-width="1px">180</text><text x="255.34895833333331" y="0" dx="0em" dy="0.95em" style="text-anchor: middle; visibility: inherit; font-family: Roboto, sans-serif; font-size: 12px; font-weight: 200;" fill="rgb(50, 49, 63)" stroke="none" stroke-width="1px">200</text><text x="278.5625" y="0" dx="0em" dy="0.95em" style="text-anchor: middle; visibility: hidden; font-family: Roboto, sans-serif; font-size: 12px; font-weight: 200;" fill="rgb(50, 49, 63)" stroke="none" stroke-width="1px">220</text></g><line x1="0" y1="0" x2="278.5625" y2="0" fill="rgb(0, 0, 0)" stroke="rgb(204, 204, 204)" stroke-width="1px"></line></g></g></g></g></svg>