<svg viewBox="0 0 330 200" xmlns="http://www.w3.org/2000/svg"><g><g><g><g><g><line x1="51.4375" y1="178" x2="46.4375" y2="178" style="visibility: inherit;" fill="rgb(0, 0, 0)" stroke="rgb(204, 204, 204)" stroke-width="1px"></line><line x1="51.4375" y1="164.3076923076923" x2="46.4375" y2="164.3076923076923" style="visibility: inherit;" fill="rgb(0, 0, 0)" stroke="rgb(204, 204, 204)" stroke-width="1px"></line><line x1="51.4375" y1="150.61538461538467" x2="46.4375" y2="150.61538461538467" style="visibility: inherit;" fill="rgb(0, 0, 0)" stroke="rgb(204, 204, 204)" stroke-width="1px"></line><line x1="51.4375" y1="136.92307692307696" x2="46.4375" y2="136.92307692307696" style="visibility: inherit;" fill="rgb(0, 0, 0)" stroke="rgb(204, 204, 204)" stroke-width="1px"></line><line x1="51.4375" y1="123.23076923076927" x2="46.4375" y2="123.23076923076927" style="visibility: inherit;" fill="rgb(0, 0, 0)" stroke="rgb(204, 204, 204)" stroke-width="1px"></line><line x1="51.4375" y1="109.53846153846155" x2="46.4375" y2="109.53846153846155" style="visibility: inherit;" fill="rgb(0, 0, 0)" stroke="rgb(204, 204, 204)" stroke-width="1px"></line><line x1="51.4375" y1="95.84615384615387" x2="46.4375" y2="95.84615384615387" style="visibility: inherit;" fill="rgb(0, 0, 0)" stroke="rgb(204, 204, 204)" stroke-width="1px"></line><line x1="51.4375" y1="82.15384615384613" x2="46.4375" y2="82.15384615384613" style="visibility: inherit;" fill="rgb(0, 0, 0)" stroke="rgb(204, 204, 204)" stroke-width="1px"></line><line x1="51.4375" y1="68.46153846153851" x2="46.4375" y2="68.46153846153851" style="visibility: inherit;" fill="rgb(0, 0, 0)" stroke="rgb(204, 204, 204)" stroke-width="1px"></line><line x1="51.4375" y1="54.76923076923081" x2="46.4375" y2="54.76923076923081" style="visibility: inherit;" fill="rgb(0, 0, 0)" stroke="rgb(204, 204, 204)" stroke-width="1px"></line><line x1="51.4375" y1="41.07692307692311" x2="46.4375" y2="41.07692307692311" style="visibility: inherit;" fill="rgb(0, 0, 0)" stroke="rgb(204, 204, 204)" stroke-width="1px"></line><line x1="51.4375" y1="27.384615384615405" x2="46.4375" y2="27.384615384615405" style="visibility: inherit;" fill="rgb(0, 0, 0)" stroke="rgb(204, 204, 204)" stroke-width="1px"></line><line x1="51.4375" y1="13.692307692307702" x2="46.4375" y2="13.692307692307702" style="visibility: inherit;" fill="rgb(0, 0, 0)" stroke="rgb(204, 204, 204)" stroke-width="1px"></line><line x1="51.4375" y1="0" x2="46.4375" y2="0" style="visibility: inherit;" fill="rgb(0, 0, 0)" stroke="rgb(204, 204, 204)" stroke-width="1px"></line></g><g transform="translate(41.4375, 0)"><text x="0" y="178" dx="0em" dy="0.3em" style="text-anchor: end; visibility: hidden; font-family: Roboto, sans-serif; font-size: 12px; font-weight: 200;" fill="rgb(50, 49, 63)" stroke="none" stroke-width="1px">0.54</text><text x="0" y="164.3076923076923" dx="0em" dy="0.3em" style="text-anchor: end; visibility: inherit; font-family: Roboto, sans-serif; font-size: 12px; font-weight: 200;" fill="rgb(50, 49, 63)" stroke="none" stroke-width="1px">0.56</text><text x="0" y="150.61538461538467" dx="0em" dy="0.3em" style="text-anchor: end; visibility: hidden; font-family: Roboto, sans-serif; font-size: 12px; font-weight: 200;" fill="rgb(50, 49, 63)" stroke="none" stroke-width="1px">0.58</text><text x="0" y="136.92307692307696" dx="0em" dy="0.3em" style="text-anchor: end; visibility: inherit; font-family: Roboto, sans-serif; font-size: 12px; font-weight: 200;" fill="rgb(50, 49, 63)" stroke="none" stroke-width="1px">0.6</text><text x="0" y="123.23076923076927" dx="0em" dy="0.3em" style="text-anchor: end; visibility: hidden; font-family: Roboto, sans-serif; font-size: 12px; font-weight: 200;" fill="rgb(50, 49, 63)" stroke="none" stroke-width="1px">0.62</text><text x="0" y="109.53846153846155" dx="0em" dy="0.3em" style="text-anchor: end; visibility: inherit; font-family: Roboto, sans-serif; font-size: 12px; font-weight: 200;" fill="rgb(50, 49, 63)" stroke="none" stroke-width="1px">0.64</text><text x="0" y="95.84615384615387" dx="0em" dy="0.3em" style="text-anchor: end; visibility: hidden; font-family: Roboto, sans-serif; font-size: 12px; font-weight: 200;" fill="rgb(50, 49, 63)" stroke="none" stroke-width="1px">0.66</text><text x="0" y="82.15384615384613" dx="0em" dy="0.3em" style="text-anchor: end; visibility: inherit; font-family: Roboto, sans-serif; font-size: 12px; font-weight: 200;" fill="rgb(50, 49, 63)" stroke="none" stroke-width="1px">0.68</text><text x="0" y="68.46153846153851" dx="0em" dy="0.3em" style="text-anchor: end; visibility: hidden; font-family: Roboto, sans-serif; font-size: 12px; font-weight: 200;" fill="rgb(50, 49, 63)" stroke="none" stroke-width="1px">0.7</text><text x="0" y="54.76923076923081" dx="0em" dy="0.3em" style="text-anchor: end; visibility: inherit; font-family: Roboto, sans-serif; font-size: 12px; font-weight: 200;" fill="rgb(50, 49, 63)" stroke="none" stroke-width="1px">0.72</text><text x="0" y="41.07692307692311" dx="0em" dy="0.3em" style="text-anchor: end; visibility: hidden; font-family: Roboto, sans-serif; font-size: 12px; font-weight: 200;" fill="rgb(50, 49, 63)" stroke="none" stroke-width="1px">0.74</text><text x="0" y="27.384615384615405" dx="0em" dy="0.3em" style="text-anchor: end; visibility: inherit; font-family: Roboto, sans-serif; font-size: 12px; font-weight: 200;" fill="rgb(50, 49, 63)" stroke="none" stroke-width="1px">0.76</text><text x="0" y="13.692307692307702" dx="0em" dy="0.3em" style="text-anchor: end; visibility: hidden; font-family: Roboto, sans-serif; font-size: 12px; font-weight: 200;" fill="rgb(50, 49, 63)" stroke="none" stroke-width="1px">0.78</text><text x="0" y="0" dx="0em" dy="0.3em" style="text-anchor: end; visibility: hidden; font-family: Roboto, sans-serif; font-size: 12px; font-weight: 200;" fill="rgb(50, 49, 63)" stroke="none" stroke-width="1px">0.8</text></g><line x1="51.4375" y1="0" x2="51.4375" y2="178" fill="rgb(0, 0, 0)" stroke="rgb(204, 204, 204)" stroke-width="1px"></line></g></g><g transform="translate(51, 0)" clip-path="url(#clip_0)"><clipPath id="clip_0"><rect width="278" height="178"></rect></clipPath><g><g><g><line x1="0" y1="0" x2="0" y2="178" fill="rgb(0, 0, 0)" stroke="rgb(60, 60, 60)" stroke-width="1px" opacity="0.25"></line><line x1="23.213541666666664" y1="0" x2="23.213541666666664" y2="178" fill="rgb(0, 0, 0)" stroke="rgb(60, 60, 60)" stroke-width="1px" opacity="0.25"></line><line x1="46.42708333333333" y1="0" x2="46.42708333333333" y2="178" fill="rgb(0, 0, 0)" stroke="rgb(60, 60, 60)" stroke-width="1px" opacity="0.25"></line><line x1="69.640625" y1="0" x2="69.640625" y2="178" fill="rgb(0, 0, 0)" stroke="rgb(60, 60, 60)" stroke-width="1px" opacity="0.25"></line><line x1="92.85416666666666" y1="0" x2="92.85416666666666" y2="178" fill="rgb(0, 0, 0)" stroke="rgb(60, 60, 60)" stroke-width="1px" opacity="0.25"></line><line x1="116.06770833333334" y1="0" x2="116.06770833333334" y2="178" fill="rgb(0, 0, 0)" stroke="rgb(60, 60, 60)" stroke-width="1px" opacity="0.25"></line><line x1="139.28125" y1="0" x2="139.28125" y2="178" fill="rgb(0, 0, 0)" stroke="rgb(60, 60, 60)" stroke-width="1px" opacity="0.25"></line><line x1="162.49479166666669" y1="0" x2="162.49479166666669" y2="178" fill="rgb(0, 0, 0)" stroke="rgb(60, 60, 60)" stroke-width="1px" opacity="0.25"></line><line x1="185.70833333333331" y1="0" x2="185.70833333333331" y2="178" fill="rgb(0, 0, 0)" stroke="rgb(60, 60, 60)" stroke-width="1px" opacity="0.25"></line><line x1="208.921875" y1="0" x2="208.921875" y2="178" fill="rgb(0, 0, 0)" stroke="rgb(60, 60, 60)" stroke-width="1px" opacity="0.25"></line><line x1="232.13541666666669" y1="0" x2="232.13541666666669" y2="178" fill="rgb(0, 0, 0)" stroke="rgb(60, 60, 60)" stroke-width="1px" opacity="0.25"></line><line x1="255.34895833333331" y1="0" x2="255.34895833333331" y2="178" fill="rgb(0, 0, 0)" stroke="rgb(60, 60, 60)" stroke-width="1px" opacity="0.25"></line><line x1="278.5625" y1="0" x2="278.5625" y2="178" fill="rgb(0, 0, 0)" stroke="rgb(60, 60, 60)" stroke-width="1px" opacity="0.25"></line></g><g><line x1="0" y1="178" x2="278.5625" y2="178" fill="rgb(0, 0, 0)" stroke="rgb(60, 60, 60)" stroke-width="1px" opacity="0.25"></line><line x1="0" y1="164.3076923076923" x2="278.5625" y2="164.3076923076923" fill="rgb(0, 0, 0)" stroke="rgb(60, 60, 60)" stroke-width="1px" opacity="0.25"></line><line x1="0" y1="150.61538461538467" x2="278.5625" y2="150.61538461538467" fill="rgb(0, 0, 0)" stroke="rgb(60, 60, 60)" stroke-width="1px" opacity="0.25"></line><line x1="0" y1="136.92307692307696" x2="278.5625" y2="136.92307692307696" fill="rgb(0, 0, 0)" stroke="rgb(60, 60, 60)" stroke-width="1px" opacity="0.25"></line><line x1="0" y1="123.23076923076927" x2="278.5625" y2="123.23076923076927" fill="rgb(0, 0, 0)" stroke="rgb(60, 60, 60)" stroke-width="1px" opacity="0.25"></line><line x1="0" y1="109.53846153846155" x2="278.5625" y2="109.53846153846155" fill="rgb(0, 0, 0)" stroke="rgb(60, 60, 60)" stroke-width="1px" opacity="0.25"></line><line x1="0" y1="95.84615384615387" x2="278.5625" y2="95.84615384615387" fill="rgb(0, 0, 0)" stroke="rgb(60, 60, 60)" stroke-width="1px" opacity="0.25"></line><line x1="0" y1="82.15384615384613" x2="278.5625" y2="82.15384615384613" fill="rgb(0, 0, 0)" stroke="rgb(60, 60, 60)" stroke-width="1px" opacity="0.25"></line><line x1="0" y1="68.46153846153851" x2="278.5625" y2="68.46153846153851" fill="rgb(0, 0, 0)" stroke="rgb(60, 60, 60)" stroke-width="1px" opacity="0.25"></line><line x1="0" y1="54.76923076923081" x2="278.5625" y2="54.76923076923081" fill="rgb(0, 0, 0)" stroke="rgb(60, 60, 60)" stroke-width="1px" opacity="0.25"></line><line x1="0" y1="41.07692307692311" x2="278.5625" y2="41.07692307692311" fill="rgb(0, 0, 0)" stroke="rgb(60, 60, 60)" stroke-width="1px" opacity="0.25"></line><line x1="0" y1="27.384615384615405" x2="278.5625" y2="27.384615384615405" fill="rgb(0, 0, 0)" stroke="rgb(60, 60, 60)" stroke-width="1px" opacity="0.25"></line><line x1="0" y1="13.692307692307702" x2="278.5625" y2="13.692307692307702" fill="rgb(0, 0, 0)" stroke="rgb(60, 60, 60)" stroke-width="1px" opacity="0.25"></line><line x1="0" y1="0" x2="278.5625" y2="0" fill="rgb(0, 0, 0)" stroke="rgb(60, 60, 60)" stroke-width="1px" opacity="0.25"></line></g></g></g><g><g><line x1="0" y1="547.6923076923077" x2="278.5625" y2="547.6923076923077" fill="rgb(0, 0, 0)" stroke="rgb(153, 153, 153)" stroke-width="1.5px"></line></g></g><g><g><line x1="23.213541666666664" y1="0" x2="23.213541666666664" y2="178" fill="rgb(0, 0, 0)" stroke="rgb(153, 153, 153)" stroke-width="1.5px"></line></g></g><g><g><g><g><g><path stroke="rgb(0, 119, 187)" stroke-width="2px" d="M30.17760416666667,184.4658619827778L31.33828125,172.6542885554691L32.498958333333334,165.65702260072553L33.65963541666667,155.1236243200483L34.8203125,154.67264848230278L35.98098958333334,154.2116734149656L37.141666666666666,137.02748035856104L38.302343750000006,126.61663328605502L39.46302083333333,118.92292623560846L40.62369791666667,114.00329272469729L41.784375,111.89303793791427L42.94505208333334,108.14360487244066L44.10572916666666,106.08520632176133L45.26640625,102.9399877790213L46.42708333333333,102.73394007043134L47.58776041666667,101.80802012437346L48.748437499999994,101.4434997144956L49.909114583333334,101.75964761455667L51.06979166666666,102.33138098075553L52.23046875,102.06314119047201L53.39114583333334,102.28424249890205L54.551822916666666,101.27078526159843L55.712500000000006,101.38858960357953L56.87317708333333,100.6951830145942L58.03385416666667,101.31065617822564L59.19453125,101.25970083560097L60.35520833333334,101.19091665192218L61.51588541666666,100.80581261410356L62.6765625,100.61294485550265L63.83723958333333,101.2231022285503L64.99791666666667,100.51948510326942L66.15859375,99.82988694527945L67.31927083333333,99.7599615727525L68.47994791666666,99.94723957788578L69.640625,99.29551738271864L70.80130208333333,99.63036208490138L71.96197916666668,99.64024665668435L73.12265625,100.21924414795711L74.28333333333333,100.87228150617857L75.44401041666666,100.11797042478534L76.60468750000001,100.96432854273297L77.76536458333334,99.71476483525579L78.92604166666666,100.34036069025497L80.08671874999999,99.49319539428389L81.24739583333334,100.16922436929465L82.40807291666667,99.00846910297415L83.56875,98.38842157843092L84.72942708333332,98.89508235279976L85.89010416666667,98.58781741294261L87.05078125,98.82371392664042L88.21145833333333,98.54499635724713L89.37213541666668,98.60699904385454L90.5328125,98.52958404169728L91.69348958333333,98.10109054166595L92.85416666666666,97.46196626541278L94.01484375000001,98.3010145086162L95.17552083333334,97.96394882181735L96.33619791666666,97.79992038861282L97.49687499999999,98.08354782742714L98.65755208333334,97.48963529324156L99.81822916666667,97.20969340797716L100.97890625,98.34067304352331L102.13958333333332,98.52259971199234L103.30026041666667,98.32613317208632L104.4609375,97.44416425066865L105.62161458333333,97.22062176130812L106.78229166666668,97.96518555678485L107.94296875,97.91527904371502L109.10364583333333,97.69431288650453L110.26432291666666,97.17968869344122L111.42500000000001,96.33605840837247L112.58567708333334,97.2816362745297L113.74635416666666,96.28261034290384L114.90703124999999,96.37087814615549L116.06770833333334,96.95869459733731L117.22838541666667,96.50910081420027L118.3890625,95.97191665970267L119.54973958333332,95.5731842092545L120.71041666666667,95.06651685437022L121.87109375,94.34227728633056L123.03177083333333,95.130256354462L124.19244791666668,94.9535877344912L125.353125,94.92399219775548L126.51380208333333,94.52419037697712L127.67447916666666,94.66635378324709L128.83515625,94.63703521288737L129.99583333333334,94.88687195528705L131.15651041666666,94.73115145973932L132.3171875,93.60620228032127L133.47786458333334,93.58070515602282L134.63854166666667,93.4507902673221L135.79921875,94.13693033157573L136.95989583333332,93.8609310079007L138.12057291666667,93.69533141369575L139.28125,93.09932686681681L140.44192708333333,92.97094104442998L141.60260416666665,93.27595404973488L142.76328124999998,93.1915339683025L143.92395833333336,93.63752670979902L145.08463541666669,93.3702665854662L146.2453125,93.66836064485035L147.40598958333334,92.85391117726614L148.56666666666666,91.86859670635968L149.72734375,91.92688040716823L150.88802083333331,93.26077907185551L152.04869791666664,91.95990617261961L153.20937500000002,91.94345510804943L154.37005208333335,91.51334531419819L155.53072916666667,93.43289717118263L156.69140625,92.40701055207812L157.85208333333333,93.0140013895707L159.01276041666665,91.8500342196208L160.17343749999998,92.71802656897107L161.33411458333336,93.12420536445963L162.49479166666669,93.17689039238417L163.65546875,92.02417325655571L164.81614583333334,91.75279845267049L165.97682291666666,92.3540462453107L167.1375,92.86760619138859L168.29817708333331,92.1442415994486L169.45885416666664,91.90124509365303L170.61953125000002,91.06778015045126L171.78020833333335,90.79691809027078L172.94088541666667,90.74901746828411L174.1015625,91.40794413481659L175.26223958333333,91.87970576998299L176.42291666666665,91.9335458453422L177.58359374999998,91.85123327643606L178.74427083333336,91.0759677164931L179.90494791666669,90.87823626514273L181.065625,90.49216950971712L182.22630208333334,91.13921874555477L183.38697916666666,90.68696997683915L184.54765625,90.91226550596576L185.70833333333331,91.1238484586886L186.86901041666664,90.21929767073553L188.02968750000002,90.09680635307281L189.19036458333335,90.25254479071846L190.35104166666667,90.76622700841499L191.51171875,89.66089128070908L192.67239583333333,89.79997349793172L193.83307291666665,90.60930084686464L194.99374999999998,89.108285449795L196.15442708333336,89.23917677114L197.31510416666669,90.04358958254626L198.47578125,90.4880426130179L199.63645833333334,90.41086458893592L200.79713541666666,90.17355184762096L201.9578125,89.49630843360121L203.11848958333331,89.31917929092995L204.27916666666664,89.51854066881738L205.43984375000002,89.9819910154121L206.60052083333335,90.60389474323112L207.76119791666667,91.35908147865962L208.921875,90.97169888719579L210.08255208333333,90.58645806182376L211.24322916666665,89.74405216212297L212.40390624999998,88.58913623894996L213.56458333333336,87.62875880043083L214.72526041666669,88.69529430138371L215.8859375,88.8385708115994L217.04661458333334,89.61220375745341L218.20729166666666,89.80895564035042L219.36796875,89.1247231162424L220.52864583333331,90.20415061785106L221.68932291666664,90.46976262007917L222.85000000000002,89.82684616756993L224.01067708333335,89.93774108642029L225.17135416666667,89.77506113198989L226.33203125,88.76055289136386L227.49270833333333,88.87772596558756L228.65338541666665,88.90981883124694L229.81406249999998,89.46393031987343L230.97473958333336,90.59868086689546L232.13541666666669,89.06370248293872L233.29609375,88.25733206668633L234.45677083333334,87.88812643105649L235.61744791666666,87.85762529904717L236.778125,88.45058602431924L237.93880208333331,87.85125121263987L239.09947916666664,87.7590782102476L240.26015625000002,88.3532467921647L241.42083333333335,88.86255921180866L242.58151041666667,89.24456862134461L243.7421875,88.70968526959211L244.90286458333333,88.84720539252444L246.06354166666665,89.31176196502096L247.22421874999998,90.6602074469804L248.38489583333336,89.75009081434206L249.54557291666669,89.81528223923671L250.70625,90.19823061403578L251.86692708333334,89.39649907932844L253.02760416666666,88.9536548148761L254.18828125,89.10820373381654" style="fill: none;" fill="none"></path></g><g><path stroke="rgb(255, 112, 67)" stroke-width="2px" d="M29.016927083333336,182.80721274654945L30.17760416666667,170.94739501836898L31.33828125,160.71252024112465L32.498958333333334,151.23507004530532L33.65963541666667,144.1577548301702L34.8203125,135.91862810737254L35.98098958333334,129.2027021631708L37.141666666666666,118.01271369698884L38.302343750000006,108.77269533051376L39.46302083333333,102.51598478531477L40.62369791666667,96.49749210612227L41.784375,92.33289771482278L42.94505208333334,87.56865186965962L44.10572916666666,84.56699580140199L45.26640625,82.52711640318896L46.42708333333333,81.52312175508592L47.58776041666667,79.82132242051745L48.748437499999994,79.09662717795517L49.909114583333334,78.1455631329247L51.06979166666666,77.82348736820724L52.23046875,77.8788019908717L53.39114583333334,77.52960304141754L54.551822916666666,77.48259083738829L55.712500000000006,76.96683019746607L56.87317708333333,75.91169655588314L58.03385416666667,75.43157471352876L59.19453125,75.17218028844177L60.35520833333334,74.16570050652504L61.51588541666666,73.70522218116842L62.6765625,73.91648835911869L63.83723958333333,73.24976223050173L64.99791666666667,72.18053658694943L66.15859375,71.66328074124814L67.31927083333333,71.29556996035998L68.47994791666666,71.20877169235685L69.640625,70.63089595098823L70.80130208333333,70.65700911384421L71.96197916666668,70.71092063544108L73.12265625,70.10273989641803L74.28333333333333,69.10688511024443L75.44401041666666,69.35065035151068L76.60468750000001,69.51602314695012L77.76536458333334,69.73952635994634L78.92604166666666,69.41475376868001L80.08671874999999,68.27344621601863L81.24739583333334,67.1106571921792L82.40807291666667,66.76670873439271L83.56875,65.76685383484158L84.72942708333332,66.48622350021131L85.89010416666667,65.86625173899313L87.05078125,65.78107137761029L88.21145833333333,65.37623820426803L89.37213541666668,66.3187763830313L90.5328125,65.98566390286847L91.69348958333333,65.18351238679082L92.85416666666666,65.1993396200792L94.01484375000001,63.698351558055904L95.17552083333334,63.533887271151364L96.33619791666666,63.33960780055939L97.49687499999999,62.8788801482875L98.65755208333334,63.338555784731014L99.81822916666667,62.52452398227802L100.97890625,62.55235301693267L102.13958333333332,61.622606439828836L103.30026041666667,62.45096335982914L104.4609375,61.91549760207915L105.62161458333333,60.97282046876042L106.78229166666668,61.24849230162088L107.94296875,61.75805537125394L109.10364583333333,60.725396957247064L110.26432291666666,59.43659561969834L111.42500000000001,59.22735522126872L112.58567708333334,58.13625333362559L113.74635416666666,57.39555628918624L114.90703124999999,57.171002174202876L116.06770833333334,56.98847741723963L117.22838541666667,56.22888624710848L118.3890625,56.25113603727595L119.54973958333332,56.522593646936905L120.71041666666667,56.484717751741975L121.87109375,55.764107288195916L123.03177083333333,56.18258410951566L124.19244791666668,55.58282710286008L125.353125,55.949536462580404L126.51380208333333,55.53859941314824L127.67447916666666,55.71266807866337L128.83515625,54.76551571753357L129.99583333333334,55.19146058672549L131.15651041666666,54.27115441206808L132.3171875,54.474212908271824L133.47786458333334,53.93640670344509L134.63854166666667,53.46076480753089L135.79921875,52.16201341092091L136.95989583333332,51.15331715217624L138.12057291666667,51.475429744137315L139.28125,51.13333553249879L140.44192708333333,50.660389960856676L141.60260416666665,50.759026211668356L142.76328124999998,50.789529324870884L143.92395833333336,50.43499258559118L145.08463541666669,49.858996921417955L146.2453125,49.41779862446472L147.40598958333334,49.18175828357726L148.56666666666666,48.90628955671531L149.72734375,48.05268838076469L150.88802083333331,47.65524222433233L152.04869791666664,48.33453989108509L153.20937500000002,49.162765708813986L154.37005208333335,48.4933767673717L155.53072916666667,48.483695660396286L156.69140625,47.80869702956907L157.85208333333333,46.54328976502955L159.01276041666665,46.682697116229306L160.17343749999998,46.728097903068935L161.33411458333336,45.36913350891009L162.49479166666669,46.34147698316306L163.65546875,46.21744947719265L164.81614583333334,45.884908915547214L165.97682291666666,44.30874469889305L167.1375,44.12783703399178L168.29817708333331,44.13402330669175L169.45885416666664,43.239083360388356L170.61953125000002,43.2470461460172L171.78020833333335,43.127544281660825L172.94088541666667,43.638997217835424L174.1015625,44.108392139154134L175.26223958333333,42.92735330042504L176.42291666666665,42.821014025167486L177.58359374999998,41.8012014755206L178.74427083333336,41.906312522850385L179.90494791666669,41.56786190676257L181.065625,42.04354649034753L182.22630208333334,40.9045250728584L183.38697916666666,40.297599470125405L184.54765625,40.95635903164L185.70833333333331,39.994088539570676L186.86901041666664,40.2102120692075L188.02968750000002,40.10089210211788L189.19036458333335,38.180655749951114L190.35104166666667,39.389825117592004L191.51171875,39.3223632333853L192.67239583333333,38.507007931087166L193.83307291666665,38.91644645963169L194.99374999999998,38.27302285343081L196.15442708333336,38.11641411048896L197.31510416666669,37.28632031441443L198.47578125,37.59131484824384L199.63645833333334,37.50662252388258L200.79713541666666,37.37933620400806L201.9578125,36.595514499058396L203.11848958333331,36.4693814460053L204.27916666666664,36.164272515897515L205.43984375000002,34.432479131956285L206.60052083333335,34.30160347560784L207.76119791666667,34.77755349930281L208.921875,34.88148670321704L210.08255208333333,35.775576074324206L211.24322916666665,34.619908484689496L212.40390624999998,33.74485479810316L213.56458333333336,34.40527699142244L214.72526041666669,34.26616854059887L215.8859375,33.65690668988524L217.04661458333334,34.10394905502431L218.20729166666666,32.92861233327608L219.36796875,32.77788571773108L220.52864583333331,32.410212039652144L221.68932291666664,32.07487696116408L222.85000000000002,31.14712867286034L224.01067708333335,31.087597842812958L225.17135416666667,31.711520647333536L226.33203125,31.349745779736462L227.49270833333333,30.511283180509494L228.65338541666665,30.801691445851745L229.81406249999998,29.895647884830957L230.97473958333336,30.308030732710808L232.13541666666669,30.55546044143874L233.29609375,29.85307516722815L234.45677083333334,29.670638087573504L235.61744791666666,29.838413548532706L236.778125,29.002199813807312L237.93880208333331,29.38955829629971L239.09947916666664,28.340934404577624L240.26015625000002,27.75000369342452L241.42083333333335,27.43367256811021L242.58151041666667,27.243873892921606L243.7421875,26.862321965652225L244.90286458333333,26.73855669433556L246.06354166666665,27.0180061655553L247.22421874999998,26.870194515654862L248.38489583333336,25.911550775578554L249.54557291666669,26.340165803998335L250.70625,25.679585782940848L251.86692708333334,25.340595044875368L253.02760416666666,24.39152338763367L254.18828125,23.688235870959097" style="fill: none;" fill="none"></path></g></g></g></g><g opacity="0.2"><g><g><g><path stroke="rgb(0, 119, 187)" stroke-width="2px" d="M27.856250000000003,179.02385509931128L29.016927083333336,170.90553191991955L30.17760416666667,188.00180288461542L31.33828125,155.43290110734796L32.498958333333334,155.33741446641778L33.65963541666667,139.48275547761187L34.8203125,154.00027504334085L35.98098958333334,153.52271941991955L37.141666666666666,111.30730014580949L38.302343750000006,111.02075861050535L39.46302083333333,107.3914093237657L40.62369791666667,106.62731216504027L41.784375,108.72854874684263L42.94505208333334,102.52040725487932L44.10572916666666,102.9979220720438L45.26640625,98.2224474503444L46.42708333333333,102.42487980769234L47.58776041666667,100.41917067307695L48.748437499999994,100.89672629649824L49.909114583333334,102.23386571957518L51.06979166666666,103.18897696641777L52.23046875,101.6607826489669L53.39114583333334,102.61589389580949L54.551822916666666,99.7506009615385L55.712500000000006,101.56529600803673L56.87317708333333,99.6550735143515L58.03385416666667,102.23386571957518L59.19453125,101.18326783180241L60.35520833333334,101.0877403846154L61.51588541666666,100.22815658495979L62.6765625,100.32364322588997L63.83723958333333,102.13833827238818L64.99791666666667,99.46405942623436L66.15859375,98.79548971469588L67.31927083333333,99.6550735143515L68.47994791666666,100.22815658495979L69.640625,98.31793409127458L70.80130208333333,100.13262913777281L71.96197916666668,99.6550735143515L73.12265625,101.0877403846154L74.28333333333333,101.85183754334086L75.44401041666666,98.98650380281303L76.60468750000001,102.23386571957518L77.76536458333334,97.84041927411009L78.92604166666666,101.27875447273259L80.08671874999999,98.2224474503444L81.24739583333334,101.18326783180241L82.40807291666667,97.26733620350181L83.56875,97.45835029161896L84.72942708333332,99.6550735143515L85.89010416666667,98.12692000315742L87.05078125,99.177558697187L88.21145833333333,98.12692000315742L89.37213541666668,98.7000030737657L90.5328125,98.41346153846156L91.69348958333333,97.45835029161896L92.85416666666666,96.50327985103316L94.01484375000001,99.55958687342132L95.17552083333334,97.45835029161896L96.33619791666666,97.55387773880595L97.49687499999999,98.50898898564854L98.65755208333334,96.59876649196333L99.81822916666667,96.78978058008049L100.97890625,100.03714249684263L102.13958333333332,98.79548971469588L103.30026041666667,98.03143336222725L104.4609375,96.12121086854204L105.62161458333333,96.8853080272675L106.78229166666668,99.08203125000004L107.94296875,97.84041927411009L109.10364583333333,97.36286365068878L110.26432291666666,96.40775240384617L111.42500000000001,95.07061298076927L112.58567708333334,98.7000030737657L113.74635416666666,94.78407144546513L114.90703124999999,96.50327985103316L116.06770833333334,97.84041927411009L117.22838541666667,95.8347101394947L118.3890625,95.16614042795624L119.54973958333332,94.97508553358226L120.71041666666667,94.3065158220438L121.87109375,93.25591793427104L123.03177083333333,96.3122249566592L124.19244791666668,94.68858480453495L125.353125,94.87959889265208L126.51380208333333,93.92448764580949L127.67447916666666,94.87959889265208L128.83515625,94.59305735734794L129.99583333333334,95.26162706888641L131.15651041666666,94.49757071641777L132.3171875,91.9187785111941L133.47786458333334,93.54245946957518L134.63854166666667,93.25591793427104L135.79921875,95.16614042795624L136.95989583333332,93.4469320223882L138.12057291666667,93.4469320223882L139.28125,92.20532004649824L140.44192708333333,92.77836231084972L141.60260416666665,93.73347355769234L142.76328124999998,93.06490384615387L143.92395833333336,94.3065158220438L145.08463541666669,92.9693763989669L146.2453125,94.11550173392665L147.40598958333334,91.63223697588997L148.56666666666666,90.39062500000004L149.72734375,92.01430595838109L150.88802083333331,95.26162706888641L152.04869791666664,90.0085968237657L153.20937500000002,91.9187785111941L154.37005208333335,90.86818062342132L155.53072916666667,96.3122249566592L156.69140625,90.86818062342132L157.85208333333333,93.92448764580949L159.01276041666665,90.10408346469588L160.17343749999998,94.02001509299647L161.33411458333336,93.73347355769234L162.49479166666669,93.25591793427104L163.65546875,90.29509755281303L164.81614583333334,91.34573624684263L165.97682291666666,93.25591793427104L167.1375,93.63794611050535L168.29817708333331,91.0591947115385L169.45885416666664,91.53675033495979L170.61953125000002,89.81758273564854L171.78020833333335,90.39062500000004L172.94088541666667,90.67716653530418L174.1015625,92.3963341346154L175.26223958333333,92.58734822273259L176.42291666666665,92.01430595838109L177.58359374999998,91.72776442307695L178.74427083333336,89.91306937657872L179.90494791666669,90.58163908811717L181.065625,89.91306937657872L182.22630208333334,92.10979259931126L183.38697916666666,90.0085968237657L184.54765625,91.25020879965565L185.70833333333331,91.44122288777281L186.86901041666664,88.86247148880595L188.02968750000002,89.91306937657872L189.19036458333335,90.486152447187L190.35104166666667,91.53675033495979L191.51171875,88.00288768915031L192.67239583333333,90.0085968237657L193.83307291666665,91.82329187026393L194.99374999999998,86.85676235419056L196.15442708333336,89.43551375315742L197.31510416666669,91.25020879965565L198.47578125,91.15472215872548L199.63645833333334,90.29509755281303L200.79713541666666,89.81758273564854L201.9578125,88.48044331257164L203.11848958333331,89.05348557692311L204.27916666666664,89.81758273564854L205.43984375000002,90.67716653530418L206.60052083333335,91.53675033495979L207.76119791666667,92.49186158180241L208.921875,90.39062500000004L210.08255208333333,90.0085968237657L211.24322916666665,88.48044331257164L212.40390624999998,86.85676235419056L213.56458333333336,86.18819264265208L214.72526041666669,90.29509755281303L215.8859375,89.05348557692311L217.04661458333334,90.77265317623436L218.20729166666666,90.10408346469588L219.36796875,88.09837433008049L220.52864583333331,91.82329187026393L221.68932291666664,90.86818062342132L222.85000000000002,88.86247148880595L224.01067708333335,90.10408346469588L225.17135416666667,89.5310412003444L226.33203125,87.23879053042488L227.49270833333333,89.05348557692311L228.65338541666665,88.95795812973613L229.81406249999998,90.29509755281303L230.97473958333336,92.30080668742842L232.13541666666669,86.76123490700358L233.29609375,87.04777644230772L234.45677083333334,87.33431797761186L235.61744791666666,87.81187360103316L236.778125,89.34002711222725L237.93880208333331,86.95224899512074L239.09947916666664,87.6208187066592L240.26015625000002,89.24449966504027L241.42083333333335,89.62652784127458L242.58151041666667,89.81758273564854L243.7421875,87.90736024196333L244.90286458333333,89.05348557692311L246.06354166666665,90.0085968237657L247.22421874999998,92.68287566991954L248.38489583333336,88.38491586538463L249.54557291666669,89.91306937657872L250.70625,90.77265317623436L251.86692708333334,88.19390177726747L253.02760416666666,88.28938841819765L254.18828125,89.34002711222725" style="fill: none;" fill="none"></path></g><g><path stroke="rgb(255, 112, 67)" stroke-width="2px" d="M26.69557291666667,185.98976878019482L27.856250000000003,171.17175193933343L29.016927083333336,163.04575718366186L30.17760416666667,153.98766590998727L31.33828125,145.78997456110443L32.498958333333334,137.25767190639792L33.65963541666667,133.64876655431897L34.8203125,123.63466629615199L35.98098958333334,119.16536101928126L37.141666666666666,101.26426825156581L38.302343750000006,94.93076993868904L39.46302083333333,93.13827349589424L40.62369791666667,87.47399779466484L41.784375,86.08776844464818L42.94505208333334,80.4234927434188L44.10572916666666,80.06496897110576L45.26640625,79.4674837589264L46.42708333333333,80.01718484438386L47.58776041666667,77.26867941709666L48.748437499999994,78.0095986219553L49.909114583333334,76.71897833163924L51.06979166666666,77.34037601030793L52.23046875,77.9617736889766L53.39114583333334,77.00580551074104L54.551822916666666,77.41207260351918L55.712500000000006,76.19318971267116L56.87317708333333,74.32899667666511L58.03385416666667,74.7113921092107L59.19453125,74.78308870242195L60.35520833333334,72.65598095380345L61.51588541666666,73.0145047261165L62.6765625,74.23338761696452L63.83723958333333,72.24967305476851L64.99791666666667,70.57669813816368L66.15859375,70.887396977498L67.31927083333333,70.74400379107551L68.47994791666666,71.07857429064241L69.640625,69.7640823400938L70.80130208333333,70.69617885809681L71.96197916666668,70.79178791779741L73.12265625,69.19046878814699L74.28333333333333,67.61310293124275L75.44401041666666,69.7162982133719L76.60468750000001,69.7640823400938L77.76536458333334,70.07478117942811L78.92604166666666,68.92759488179136L80.08671874999999,66.56148488704979L81.24739583333334,65.36647365643431L82.40807291666667,66.25078604771544L83.56875,64.26707148551942L84.72942708333332,67.56527799826405L85.89010416666667,64.93629409716682L87.05078125,65.65330083553611L88.21145833333333,64.76898844425499L89.37213541666668,67.73258365117589L90.5328125,65.48599518262425L91.69348958333333,63.98028511267445L92.85416666666666,65.22308047001182L94.01484375000001,61.44686946502101L95.17552083333334,63.287190840794516L96.33619791666666,63.04818859467143L97.49687499999999,62.18778866987965L98.65755208333334,64.02806923939634L99.81822916666667,61.303476278598524L100.97890625,62.594096568914594L102.13958333333332,60.227986574172995L103.30026041666667,63.69349873982945L104.4609375,61.11229896545412L105.62161458333333,59.55880476878242L106.78229166666668,61.66200005091157L107.94296875,62.52239997570335L109.10364583333333,59.17640933623683L110.26432291666666,57.503393613375174L111.42500000000001,58.9134946236244L112.58567708333334,56.4996005021609L113.74635416666666,56.28451072252717L114.90703124999999,56.834171001727796L116.06770833333334,56.71469028179466L117.22838541666667,55.089499491911695L118.3890625,56.28451072252717L119.54973958333332,56.92978006142839L120.71041666666667,56.42790390894966L121.87109375,54.68319159287675L123.03177083333333,56.81029934149525L124.19244791666668,54.68319159287675L125.353125,56.4996005021609L126.51380208333333,54.92219383899986L127.67447916666666,55.97377107693602L128.83515625,53.34478717583879L129.99583333333334,55.83037789051353L131.15651041666666,52.89069515008195L132.3171875,54.77880065257735L133.47786458333334,53.12969739620506L134.63854166666667,52.74730196365947L135.79921875,50.213886316006025L136.95989583333332,49.64027276405925L138.12057291666667,51.95859863207893L139.28125,50.62019421504097L140.44192708333333,49.950971603393576L141.60260416666665,50.90698058788597L142.76328124999998,50.835283994674704L143.92395833333336,49.90318747667168L145.08463541666669,48.99500342515801L146.2453125,48.756001179034925L147.40598958333334,48.82769777224617L148.56666666666666,48.49308646642247L149.72734375,46.77228661683892L150.88802083333331,47.05907298968391L152.04869791666664,49.35348639121425L153.20937500000002,50.40510443540724L154.37005208333335,47.489293355208204L155.53072916666667,48.46917399993312L156.69140625,46.79619908332827L157.85208333333333,44.64517886822044L159.01276041666665,46.89180814302888L160.17343749999998,46.79619908332827L161.33411458333336,43.33068691767183L162.49479166666669,47.799992194542554L163.65546875,46.031408218237104L164.81614583333334,45.38609807307906L165.97682291666666,41.94449837391197L167.1375,43.856475536639905L168.29817708333331,44.14330271574171L169.45885416666664,41.89667344093325L170.61953125000002,43.258990324460584L171.78020833333335,42.948291485126234L172.94088541666667,44.406176622097334L174.1015625,44.812484521132276L175.26223958333333,41.155795042331434L176.42291666666665,42.66150511228123L177.58359374999998,40.271482651050306L178.74427083333336,42.063979093845106L179.90494791666669,41.06018598263084L181.065625,42.75707336572503L182.22630208333334,39.19599294662478L183.38697916666666,39.38721106602598L184.54765625,41.94449837391197L185.70833333333331,38.55068280146675L186.86901041666664,40.53439736366274L188.02968750000002,39.93691215148341L189.19036458333335,35.30030122170085L190.35104166666667,41.20357916905333L191.51171875,39.22117040707518L192.67239583333333,37.28397497764003L193.83307291666665,39.53060425244847L194.99374999999998,37.30788744412938L196.15442708333336,37.881500996076184L197.31510416666669,36.041179620302664L198.47578125,38.04880664898802L199.63645833333334,37.37958403734063L200.79713541666666,37.18840672419624L201.9578125,35.419781941633985L203.11848958333331,36.280181866425764L204.27916666666664,35.70660912073579L205.43984375000002,31.834789056044386L206.60052083333335,34.10528999108537L207.76119791666667,35.49147853484523L208.921875,35.03738650908839L210.08255208333333,37.116710130985L211.24322916666665,32.886407100237356L212.40390624999998,32.432274268223715L213.56458333333336,35.39591028140144L214.72526041666669,34.05750586436348L215.8859375,32.74301391381486L217.04661458333334,34.77451260273277L218.20729166666666,31.165607250653817L219.36796875,32.55179579441368L220.52864583333331,31.85870152253374L221.68932291666664,31.571874343431933L222.85000000000002,29.75550624040459L224.01067708333335,30.99830159774196L225.17135416666667,32.64740485411427L226.33203125,30.807083478340772L227.49270833333333,29.253589281669054L228.65338541666665,31.237303843865064L229.81406249999998,28.536582543299787L230.97473958333336,30.926605004530714L232.13541666666669,30.926605004530714L233.29609375,28.799497255912218L234.45677083333334,29.39698246809156L235.61744791666666,30.090076739971483L236.778125,27.74787921171925L237.93880208333331,29.970596020038343L239.09947916666664,26.767998566994336L240.26015625000002,26.86360762669493L241.42083333333335,26.95917588013872L242.58151041666667,26.95917588013872L243.7421875,26.28999407474815L244.90286458333333,26.552908787360582L246.06354166666665,27.437180372384905L247.22421874999998,26.64847704080437L248.38489583333336,24.473585165463998L249.54557291666669,26.98308834662807L250.70625,24.68871575135454L251.86692708333334,24.832108937777026L253.02760416666666,22.967915901770983L254.18828125,22.633304595947287" style="fill: none;" fill="none"></path></g></g></g></g></g></g><g transform="translate(51, 178)" clip-path="url(#clip_1)"><clipPath id="clip_1"><rect width="278" height="22"></rect></clipPath><g><g><line x1="0" y1="0" x2="0" y2="5" style="visibility: inherit;" fill="rgb(0, 0, 0)" stroke="rgb(204, 204, 204)" stroke-width="1px"></line><line x1="23.213541666666664" y1="0" x2="23.213541666666664" y2="5" style="visibility: inherit;" fill="rgb(0, 0, 0)" stroke="rgb(204, 204, 204)" stroke-width="1px"></line><line x1="46.42708333333333" y1="0" x2="46.42708333333333" y2="5" style="visibility: inherit;" fill="rgb(0, 0, 0)" stroke="rgb(204, 204, 204)" stroke-width="1px"></line><line x1="69.640625" y1="0" x2="69.640625" y2="5" style="visibility: inherit;" fill="rgb(0, 0, 0)" stroke="rgb(204, 204, 204)" stroke-width="1px"></line><line x1="92.85416666666666" y1="0" x2="92.85416666666666" y2="5" style="visibility: inherit;" fill="rgb(0, 0, 0)" stroke="rgb(204, 204, 204)" stroke-width="1px"></line><line x1="116.06770833333334" y1="0" x2="116.06770833333334" y2="5" style="visibility: inherit;" fill="rgb(0, 0, 0)" stroke="rgb(204, 204, 204)" stroke-width="1px"></line><line x1="139.28125" y1="0" x2="139.28125" y2="5" style="visibility: inherit;" fill="rgb(0, 0, 0)" stroke="rgb(204, 204, 204)" stroke-width="1px"></line><line x1="162.49479166666669" y1="0" x2="162.49479166666669" y2="5" style="visibility: inherit;" fill="rgb(0, 0, 0)" stroke="rgb(204, 204, 204)" stroke-width="1px"></line><line x1="185.70833333333331" y1="0" x2="185.70833333333331" y2="5" style="visibility: inherit;" fill="rgb(0, 0, 0)" stroke="rgb(204, 204, 204)" stroke-width="1px"></line><line x1="208.921875" y1="0" x2="208.921875" y2="5" style="visibility: inherit;" fill="rgb(0, 0, 0)" stroke="rgb(204, 204, 204)" stroke-width="1px"></line><line x1="232.13541666666669" y1="0" x2="232.13541666666669" y2="5" style="visibility: inherit;" fill="rgb(0, 0, 0)" stroke="rgb(204, 204, 204)" stroke-width="1px"></line><line x1="255.34895833333331" y1="0" x2="255.34895833333331" y2="5" style="visibility: inherit;" fill="rgb(0, 0, 0)" stroke="rgb(204, 204, 204)" stroke-width="1px"></line><line x1="278.5625" y1="0" x2="278.5625" y2="5" style="visibility: inherit;" fill="rgb(0, 0, 0)" stroke="rgb(204, 204, 204)" stroke-width="1px"></line></g><g transform="translate(0, 8)"><text x="0" y="0" dx="0em" dy="0.95em" style="text-anchor: middle; visibility: hidden; font-family: Roboto, sans-serif; font-size: 12px; font-weight: 200;" fill="rgb(50, 49, 63)" stroke="none" stroke-width="1px">-20</text><text x="23.213541666666664" y="0" dx="0em" dy="0.95em" style="text-anchor: middle; visibility: inherit; font-family: Roboto, sans-serif; font-size: 12px; font-weight: 200;" fill="rgb(50, 49, 63)" stroke="none" stroke-width="1px">0</text><text x="46.42708333333333" y="0" dx="0em" dy="0.95em" style="text-anchor: middle; visibility: hidden; font-family: Roboto, sans-serif; font-size: 12px; font-weight: 200;" fill="rgb(50, 49, 63)" stroke="none" stroke-width="1px">20</text><text x="69.640625" y="0" dx="0em" dy="0.95em" style="text-anchor: middle; visibility: inherit; font-family: Roboto, sans-serif; font-size: 12px; font-weight: 200;" fill="rgb(50, 49, 63)" stroke="none" stroke-width="1px">40</text><text x="92.85416666666666" y="0" dx="0em" dy="0.95em" style="text-anchor: middle; visibility: hidden; font-family: Roboto, sans-serif; font-size: 12px; font-weight: 200;" fill="rgb(50, 49, 63)" stroke="none" stroke-width="1px">60</text><text x="116.06770833333334" y="0" dx="0em" dy="0.95em" style="text-anchor: middle; visibility: inherit; font-family: Roboto, sans-serif; font-size: 12px; font-weight: 200;" fill="rgb(50, 49, 63)" stroke="none" stroke-width="1px">80</text><text x="139.28125" y="0" dx="0em" dy="0.95em" style="text-anchor: middle; visibility: hidden; font-family: Roboto, sans-serif; font-size: 12px; font-weight: 200;" fill="rgb(50, 49, 63)" stroke="none" stroke-width="1px">100</text><text x="162.49479166666669" y="0" dx="0em" dy="0.95em" style="text-anchor: middle; visibility: inherit; font-family: Roboto, sans-serif; font-size: 12px; font-weight: 200;" fill="rgb(50, 49, 63)" stroke="none" stroke-width="1px">120</text><text x="185.70833333333331" y="0" dx="0em" dy="0.95em" style="text-anchor: middle; visibility: hidden; font-family: Roboto, sans-serif; font-size: 12px; font-weight: 200;" fill="rgb(50, 49, 63)" stroke="none" stroke-width="1px">140</text><text x="208.921875" y="0" dx="0em" dy="0.95em" style="text-anchor: middle; visibility: inherit; font-family: Roboto, sans-serif; font-size: 12px; font-weight: 200;" fill="rgb(50, 49, 63)" stroke="none" stroke-width="1px">160</text><text x="232.13541666666669" y="0" dx="0em" dy="0.95em" style="text-anchor: middle; visibility: hidden; font-family: Roboto, sans-serif; font-size: 12px; font-weight: 200;" fill="rgb(50, 49, 63)" stroke="none" stroke-width="1px">180</text><text x="255.34895833333331" y="0" dx="0em" dy="0.95em" style="text-anchor: middle; visibility: inherit; font-family: Roboto, sans-serif; font-size: 12px; font-weight: 200;" fill="rgb(50, 49, 63)" stroke="none" stroke-width="1px">200</text><text x="278.5625" y="0" dx="0em" dy="0.95em" style="text-anchor: middle; visibility: hidden; font-family: Roboto, sans-serif; font-size: 12px; font-weight: 200;" fill="rgb(50, 49, 63)" stroke="none" stroke-width="1px">220</text></g><line x1="0" y1="0" x2="278.5625" y2="0" fill="rgb(0, 0, 0)" stroke="rgb(204, 204, 204)" stroke-width="1px"></line></g></g></g></g></svg>